{
    "asset" : {
        "generator" : "Khronos glTF Blender I/O v0.9.36",
        "version" : "2.0"
    },
    "scene" : 0,
    "scenes" : [
        {
            "name" : "Scene",
            "nodes" : [
                0
            ]
        }
    ],
    "nodes" : [
        {
            "mesh" : 0,
            "name" : "Egg Spotty"
        }
    ],
    "materials" : [
        {
            "doubleSided" : true,
            "name" : "EggMaterial004",
            "pbrMetallicRoughness" : {
                "baseColorFactor" : [
                    0.25308850407600403,
                    0.5274479985237122,
                    0.7024116516113281,
                    1
                ],
                "metallicFactor" : 0,
                "roughnessFactor" : 0.5
            }
        },
        {
            "doubleSided" : true,
            "name" : "EggMaterial003",
            "pbrMetallicRoughness" : {
                "baseColorFactor" : [
                    0.7024116516113281,
                    0.27099040150642395,
                    0.679882824420929,
                    1
                ],
                "metallicFactor" : 0,
                "roughnessFactor" : 0.6009174585342407
            }
        }
    ],
    "meshes" : [
        {
            "name" : "Sphere.005",
            "primitives" : [
                {
                    "attributes" : {
                        "POSITION" : 0,
                        "NORMAL" : 1,
                        "TEXCOORD_0" : 2
                    },
                    "indices" : 3,
                    "material" : 0
                },
                {
                    "attributes" : {
                        "POSITION" : 4,
                        "NORMAL" : 5,
                        "TEXCOORD_0" : 6
                    },
                    "indices" : 7,
                    "material" : 1
                }
            ]
        }
    ],
    "accessors" : [
        {
            "bufferView" : 0,
            "componentType" : 5126,
            "count" : 1561,
            "max" : [
                0.696531355381012,
                1.1562968492507935,
                0.6965311169624329
            ],
            "min" : [
                -0.6959640979766846,
                -0.6399953961372375,
                -0.6959644556045532
            ],
            "type" : "VEC3"
        },
        {
            "bufferView" : 1,
            "componentType" : 5126,
            "count" : 1561,
            "type" : "VEC3"
        },
        {
            "bufferView" : 2,
            "componentType" : 5126,
            "count" : 1561,
            "type" : "VEC2"
        },
        {
            "bufferView" : 3,
            "componentType" : 5123,
            "count" : 5670,
            "type" : "SCALAR"
        },
        {
            "bufferView" : 4,
            "componentType" : 5126,
            "count" : 400,
            "max" : [
                0.6562202572822571,
                0.7690747976303101,
                0.6562199592590332
            ],
            "min" : [
                -0.6617944836616516,
                -0.21476496756076813,
                -0.661794900894165
            ],
            "type" : "VEC3"
        },
        {
            "bufferView" : 5,
            "componentType" : 5126,
            "count" : 400,
            "type" : "VEC3"
        },
        {
            "bufferView" : 6,
            "componentType" : 5126,
            "count" : 400,
            "type" : "VEC2"
        },
        {
            "bufferView" : 7,
            "componentType" : 5123,
            "count" : 1050,
            "type" : "SCALAR"
        }
    ],
    "bufferViews" : [
        {
            "buffer" : 0,
            "byteLength" : 18732,
            "byteOffset" : 0
        },
        {
            "buffer" : 0,
            "byteLength" : 18732,
            "byteOffset" : 18732
        },
        {
            "buffer" : 0,
            "byteLength" : 12488,
            "byteOffset" : 37464
        },
        {
            "buffer" : 0,
            "byteLength" : 11340,
            "byteOffset" : 49952
        },
        {
            "buffer" : 0,
            "byteLength" : 4800,
            "byteOffset" : 61292
        },
        {
            "buffer" : 0,
            "byteLength" : 4800,
            "byteOffset" : 66092
        },
        {
            "buffer" : 0,
            "byteLength" : 3200,
            "byteOffset" : 70892
        },
        {
            "buffer" : 0,
            "byteLength" : 2100,
            "byteOffset" : 74092
        }
    ],
    "buffers" : [
        {
            "byteLength" : 76192,
            "uri" : "data:application/octet-stream;base64,"
        }
    ]
}
