{
    "asset" : {
        "generator" : "Khronos glTF Blender I/O v0.9.36",
        "version" : "2.0"
    },
    "scene" : 0,
    "scenes" : [
        {
            "name" : "Scene",
            "nodes" : [
                0
            ]
        }
    ],
    "nodes" : [
        {
            "mesh" : 0,
            "name" : "Egg stripey straight"
        }
    ],
    "materials" : [
        {
            "doubleSided" : true,
            "name" : "EggMaterial003",
            "pbrMetallicRoughness" : {
                "baseColorFactor" : [
                    0.7024116516113281,
                    0.27099040150642395,
                    0.679882824420929,
                    1
                ],
                "metallicFactor" : 0,
                "roughnessFactor" : 0.6009174585342407
            }
        },
        {
            "doubleSided" : true,
            "name" : "EggMaterial004",
            "pbrMetallicRoughness" : {
                "baseColorFactor" : [
                    0.25308850407600403,
                    0.5274479985237122,
                    0.7024116516113281,
                    1
                ],
                "metallicFactor" : 0,
                "roughnessFactor" : 0.5
            }
        }
    ],
    "meshes" : [
        {
            "name" : "Sphere.003",
            "primitives" : [
                {
                    "attributes" : {
                        "POSITION" : 0,
                        "NORMAL" : 1,
                        "TEXCOORD_0" : 2
                    },
                    "indices" : 3,
                    "material" : 0
                },
                {
                    "attributes" : {
                        "POSITION" : 4,
                        "NORMAL" : 5,
                        "TEXCOORD_0" : 6
                    },
                    "indices" : 7,
                    "material" : 1
                }
            ]
        }
    ],
    "accessors" : [
        {
            "bufferView" : 0,
            "componentType" : 5126,
            "count" : 271,
            "max" : [
                0.6988680362701416,
                1.1562968492507935,
                0.6988677978515625
            ],
            "min" : [
                -0.6988682746887207,
                -0.6399953961372375,
                -0.6988686919212341
            ],
            "type" : "VEC3"
        },
        {
            "bufferView" : 1,
            "componentType" : 5126,
            "count" : 271,
            "type" : "VEC3"
        },
        {
            "bufferView" : 2,
            "componentType" : 5126,
            "count" : 271,
            "type" : "VEC2"
        },
        {
            "bufferView" : 3,
            "componentType" : 5123,
            "count" : 840,
            "type" : "SCALAR"
        },
        {
            "bufferView" : 4,
            "componentType" : 5126,
            "count" : 504,
            "max" : [
                0.6988680362701416,
                0.8239719867706299,
                0.6988677978515625
            ],
            "min" : [
                -0.6988682746887207,
                -0.5460266470909119,
                -0.6988686919212341
            ],
            "type" : "VEC3"
        },
        {
            "bufferView" : 5,
            "componentType" : 5126,
            "count" : 504,
            "type" : "VEC3"
        },
        {
            "bufferView" : 6,
            "componentType" : 5126,
            "count" : 504,
            "type" : "VEC2"
        },
        {
            "bufferView" : 7,
            "componentType" : 5123,
            "count" : 1440,
            "type" : "SCALAR"
        }
    ],
    "bufferViews" : [
        {
            "buffer" : 0,
            "byteLength" : 3252,
            "byteOffset" : 0
        },
        {
            "buffer" : 0,
            "byteLength" : 3252,
            "byteOffset" : 3252
        },
        {
            "buffer" : 0,
            "byteLength" : 2168,
            "byteOffset" : 6504
        },
        {
            "buffer" : 0,
            "byteLength" : 1680,
            "byteOffset" : 8672
        },
        {
            "buffer" : 0,
            "byteLength" : 6048,
            "byteOffset" : 10352
        },
        {
            "buffer" : 0,
            "byteLength" : 6048,
            "byteOffset" : 16400
        },
        {
            "buffer" : 0,
            "byteLength" : 4032,
            "byteOffset" : 22448
        },
        {
            "buffer" : 0,
            "byteLength" : 2880,
            "byteOffset" : 26480
        }
    ],
    "buffers" : [
        {
            "byteLength" : 29360,
            "uri" : "data:application/octet-stream;base64,"
        }
    ]
}
