{
    "asset" : {
        "generator" : "Khronos glTF Blender I/O v0.9.36",
        "version" : "2.0"
    },
    "scene" : 0,
    "scenes" : [
        {
            "name" : "Scene",
            "nodes" : [
                0,
                1,
                2,
                3
            ]
        }
    ],
    "nodes" : [
        {
            "name" : "Camera",
            "rotation" : [
                0.483536034822464,
                0.33687159419059753,
                -0.20870360732078552,
                0.7804827094078064
            ],
            "translation" : [
                7.358891487121582,
                4.958309173583984,
                6.925790786743164
            ]
        },
        {
            "mesh" : 0,
            "name" : "Egg Stripey"
        },
        {
            "name" : "Area",
            "rotation" : [
                0.30402931571006775,
                0.13668911159038544,
                0.14611393213272095,
                0.9314144849777222
            ],
            "translation" : [
                -4.1668877601623535,
                4.30982780456543,
                3.320798873901367
            ]
        },
        {
            "name" : "Area.001",
            "rotation" : [
                0.30402931571006775,
                0.13668911159038544,
                0.14611393213272095,
                0.9314144849777222
            ],
            "translation" : [
                7.68574333190918,
                6.987074851989746,
                -1.5249483585357666
            ]
        }
    ],
    "materials" : [
        {
            "doubleSided" : true,
            "name" : "EggMaterial001",
            "pbrMetallicRoughness" : {
                "baseColorFactor" : [
                    0.7024116516113281,
                    0.05521084740757942,
                    0.05339457467198372,
                    1
                ],
                "metallicFactor" : 0,
                "roughnessFactor" : 0.5
            }
        },
        {
            "doubleSided" : true,
            "name" : "EggMaterial002",
            "pbrMetallicRoughness" : {
                "baseColorFactor" : [
                    0.7842311263084412,
                    0.7045823931694031,
                    0.11068741977214813,
                    1
                ],
                "metallicFactor" : 0,
                "roughnessFactor" : 0.5
            }
        }
    ],
    "meshes" : [
        {
            "name" : "Sphere.002",
            "primitives" : [
                {
                    "attributes" : {
                        "POSITION" : 0,
                        "NORMAL" : 1,
                        "TEXCOORD_0" : 2
                    },
                    "indices" : 3,
                    "material" : 0
                },
                {
                    "attributes" : {
                        "POSITION" : 4,
                        "NORMAL" : 5,
                        "TEXCOORD_0" : 6
                    },
                    "indices" : 7,
                    "material" : 1
                }
            ]
        }
    ],
    "accessors" : [
        {
            "bufferView" : 0,
            "componentType" : 5126,
            "count" : 271,
            "max" : [
                0.7075833678245544,
                1.1562751531600952,
                0.6985330581665039
            ],
            "min" : [
                -0.6228496432304382,
                -0.6391634941101074,
                -0.7040298581123352
            ],
            "type" : "VEC3"
        },
        {
            "bufferView" : 1,
            "componentType" : 5126,
            "count" : 271,
            "type" : "VEC3"
        },
        {
            "bufferView" : 2,
            "componentType" : 5126,
            "count" : 271,
            "type" : "VEC2"
        },
        {
            "bufferView" : 3,
            "componentType" : 5123,
            "count" : 840,
            "type" : "SCALAR"
        },
        {
            "bufferView" : 4,
            "componentType" : 5126,
            "count" : 387,
            "max" : [
                0.7075833678245544,
                1.069056749343872,
                0.6985330581665039
            ],
            "min" : [
                -0.6228496432304382,
                -0.4979442358016968,
                -0.7040298581123352
            ],
            "type" : "VEC3"
        },
        {
            "bufferView" : 5,
            "componentType" : 5126,
            "count" : 387,
            "type" : "VEC3"
        },
        {
            "bufferView" : 6,
            "componentType" : 5126,
            "count" : 387,
            "type" : "VEC2"
        },
        {
            "bufferView" : 7,
            "componentType" : 5123,
            "count" : 1440,
            "type" : "SCALAR"
        }
    ],
    "bufferViews" : [
        {
            "buffer" : 0,
            "byteLength" : 3252,
            "byteOffset" : 0
        },
        {
            "buffer" : 0,
            "byteLength" : 3252,
            "byteOffset" : 3252
        },
        {
            "buffer" : 0,
            "byteLength" : 2168,
            "byteOffset" : 6504
        },
        {
            "buffer" : 0,
            "byteLength" : 1680,
            "byteOffset" : 8672
        },
        {
            "buffer" : 0,
            "byteLength" : 4644,
            "byteOffset" : 10352
        },
        {
            "buffer" : 0,
            "byteLength" : 4644,
            "byteOffset" : 14996
        },
        {
            "buffer" : 0,
            "byteLength" : 3096,
            "byteOffset" : 19640
        },
        {
            "buffer" : 0,
            "byteLength" : 2880,
            "byteOffset" : 22736
        }
    ],
    "buffers" : [
        {
            "byteLength" : 25616,
            "uri" : "data:application/octet-stream;base64,"
        }
    ]
}
