{
    "asset" : {
        "generator" : "Khronos glTF Blender I/O v0.9.36",
        "version" : "2.0"
    },
    "scene" : 0,
    "scenes" : [
        {
            "name" : "Scene",
            "nodes" : [
                0,
                1,
                2,
                3
            ]
        }
    ],
    "nodes" : [
        {
            "name" : "Camera",
            "rotation" : [
                0.483536034822464,
                0.33687159419059753,
                -0.20870360732078552,
                0.7804827094078064
            ],
            "translation" : [
                7.358891487121582,
                4.958309173583984,
                6.925790786743164
            ]
        },
        {
            "name" : "Area",
            "rotation" : [
                0.30402931571006775,
                0.13668911159038544,
                0.14611393213272095,
                0.9314144849777222
            ],
            "translation" : [
                -4.1668877601623535,
                4.30982780456543,
                3.320798873901367
            ]
        },
        {
            "name" : "Area.001",
            "rotation" : [
                0.30402931571006775,
                0.13668911159038544,
                0.14611393213272095,
                0.9314144849777222
            ],
            "translation" : [
                7.68574333190918,
                6.987074851989746,
                -1.5249483585357666
            ]
        },
        {
            "mesh" : 0,
            "name" : "Egg Zigzag"
        }
    ],
    "materials" : [
        {
            "doubleSided" : true,
            "name" : "EggMaterial001",
            "pbrMetallicRoughness" : {
                "baseColorFactor" : [
                    0.7024116516113281,
                    0.05521084740757942,
                    0.05339457467198372,
                    1
                ],
                "metallicFactor" : 0,
                "roughnessFactor" : 0.5
            }
        },
        {
            "doubleSided" : true,
            "name" : "EggMaterial002",
            "pbrMetallicRoughness" : {
                "baseColorFactor" : [
                    0.7842311263084412,
                    0.7045823931694031,
                    0.11068741977214813,
                    1
                ],
                "metallicFactor" : 0,
                "roughnessFactor" : 0.5
            }
        }
    ],
    "meshes" : [
        {
            "name" : "Sphere.004",
            "primitives" : [
                {
                    "attributes" : {
                        "POSITION" : 0,
                        "NORMAL" : 1,
                        "TEXCOORD_0" : 2
                    },
                    "indices" : 3,
                    "material" : 0
                },
                {
                    "attributes" : {
                        "POSITION" : 4,
                        "NORMAL" : 5,
                        "TEXCOORD_0" : 6
                    },
                    "indices" : 7,
                    "material" : 1
                }
            ]
        }
    ],
    "accessors" : [
        {
            "bufferView" : 0,
            "componentType" : 5126,
            "count" : 616,
            "max" : [
                0.6988680362701416,
                1.1562968492507935,
                0.6988677978515625
            ],
            "min" : [
                -0.6988682746887207,
                -0.6399953961372375,
                -0.6988686919212341
            ],
            "type" : "VEC3"
        },
        {
            "bufferView" : 1,
            "componentType" : 5126,
            "count" : 616,
            "type" : "VEC3"
        },
        {
            "bufferView" : 2,
            "componentType" : 5126,
            "count" : 616,
            "type" : "VEC2"
        },
        {
            "bufferView" : 3,
            "componentType" : 5123,
            "count" : 1848,
            "type" : "SCALAR"
        },
        {
            "bufferView" : 4,
            "componentType" : 5126,
            "count" : 174,
            "max" : [
                0.6788687705993652,
                0.9521968364715576,
                0.6789050698280334
            ],
            "min" : [
                -0.6788690090179443,
                -0.4196930527687073,
                -0.6789059638977051
            ],
            "type" : "VEC3"
        },
        {
            "bufferView" : 5,
            "componentType" : 5126,
            "count" : 174,
            "type" : "VEC3"
        },
        {
            "bufferView" : 6,
            "componentType" : 5126,
            "count" : 174,
            "type" : "VEC2"
        },
        {
            "bufferView" : 7,
            "componentType" : 5123,
            "count" : 432,
            "type" : "SCALAR"
        }
    ],
    "bufferViews" : [
        {
            "buffer" : 0,
            "byteLength" : 7392,
            "byteOffset" : 0
        },
        {
            "buffer" : 0,
            "byteLength" : 7392,
            "byteOffset" : 7392
        },
        {
            "buffer" : 0,
            "byteLength" : 4928,
            "byteOffset" : 14784
        },
        {
            "buffer" : 0,
            "byteLength" : 3696,
            "byteOffset" : 19712
        },
        {
            "buffer" : 0,
            "byteLength" : 2088,
            "byteOffset" : 23408
        },
        {
            "buffer" : 0,
            "byteLength" : 2088,
            "byteOffset" : 25496
        },
        {
            "buffer" : 0,
            "byteLength" : 1392,
            "byteOffset" : 27584
        },
        {
            "buffer" : 0,
            "byteLength" : 864,
            "byteOffset" : 28976
        }
    ],
    "buffers" : [
        {
            "byteLength" : 29840,
            "uri" : "data:application/octet-stream;base64,"
        }
    ]
}
